# xmcd CD database file
# 
# Track frame offsets:
# 	150
# 	15135
# 	26912
# 	49065
# 	70082
# 	84070
# 	99780
# 	112325
# 	129477
# 	144997
# 
# Disc length: 2182 seconds
# 
# Submitted via: Nero 6, 3, 0, 3
# 
# Revision: 0
# Processed by: cddbd v1.5.1PL0 Copyright (c) Steve Scherf et al.
#
DISCID=7408840a
DTITLE=Lyle Lovett - Step Inside This House [CD 2]
DYEAR=1900
DGENRE=
TTITLE0=Texas Trilogy: Daybreak
TTITLE1=Texas Trilogy: Train Ride
TTITLE2=Texas Trilogy: Bosque County Romance
TTITLE3=Flyin' Shoes
TTITLE4=Babes In The Woods
TTITLE5=Highway Kind
TTITLE6=Lonely In Love
TTITLE7=If I Needed You
TTITLE8=I'll Come Knockin'
TTITLE9=Texas River Song
EXTD=
EXTT0=
EXTT1=
EXTT2=
EXTT3=
EXTT4=
EXTT5=
EXTT6=
EXTT7=
EXTT8=
EXTT9=
PLAYORDER=
